# xmcd
#
# Track frame offsets: 
#        150
#        15502
#        32433
#        47955
#        63759
#        76401
#        93616
#        112102
#        128829
#        146087
#        164254
#        181334
#        200618
#        214604
#        229660
#        248965
#        262638
#        278405
#        295992
#        314537
#
# Disc length: 4357 seconds
#
# Revision: 0
# Processed by: cddbd v1.5.2PL0 Copyright (c) Steve Scherf et al.
# Submitted via: ExactAudioCopy v1.0b1
#
DISCID=19110314
DTITLE=Billy Ray Cyrus - The Definitive Collection CD 1
DYEAR=2014
DGENRE=Country
TTITLE0=Achy Breaky Heart
TTITLE1=Could've Been Me
TTITLE2=She's Not Cryin' Anymore
TTITLE3=Wher'm I Gonna Live
TTITLE4=These Boots Are Made For Walkin'
TTITLE5=Someday, Somewhere, Somehow
TTITLE6=Some Gave All
TTITLE7=Never Thought I'd Fall In Love With You
TTITLE8=It Won't Be The Last
TTITLE9=In The Heart Of A Woman
TTITLE10=Somebody New
TTITLE11=Dreamin In Colour Living In Black And White
TTITLE12=Words By Heart
TTITLE13=Only Time Will Tell
TTITLE14=Talk Some
TTITLE15=When I'm Gone
TTITLE16=Right Face Wrong Time
TTITLE17=Storm In The Heartland
TTITLE18=The Past
TTITLE19=A Heart With Your Name On It
EXTD=
EXTT0=
EXTT1=
EXTT2=
EXTT3=
EXTT4=
EXTT5=
EXTT6=
EXTT7=
EXTT8=
EXTT9=
EXTT10=
EXTT11=
EXTT12=
EXTT13=
EXTT14=
EXTT15=
EXTT16=
EXTT17=
EXTT18=
EXTT19=
PLAYORDER=
